<svg width="512px" height="512px" viewBox="0 0 512 512" version="1.1" xmlns="http://www.w3.org/2000/svg" xmlns:xlink="http://www.w3.org/1999/xlink">
    <!-- Generator: Sketch 41.1 (35376) - http://www.bohemiancoding.com/sketch -->
    <title>GitHub</title>
    <desc>Created with Sketch.</desc>
    <defs></defs>
    <g id="Page-1" stroke="none" stroke-width="1" fill="none" fill-rule="evenodd">
        <g id="GitHub" fill="#000000">
            <path d="M256,110 C173.125,110 106,177.125 106,260 C106,326.375 148.9375,382.4375 208.5625,402.3125 C216.0625,403.625 218.875,399.125 218.875,395.1875 C218.875,391.625 218.6875,379.8125 218.6875,367.25 C181,374.1875 171.25,358.0625 168.25,349.625 C166.5625,345.3125 159.25,332 152.875,328.4375 C147.625,325.625 140.125,318.6875 152.6875,318.5 C164.5,318.3125 172.9375,329.375 175.75,333.875 C189.25,356.5625 210.8125,350.1875 219.4375,346.25 C220.75,336.5 224.6875,329.9375 229,326.1875 C195.625,322.4375 160.75,309.5 160.75,252.125 C160.75,235.8125 166.5625,222.3125 176.125,211.8125 C174.625,208.0625 169.375,192.6875 177.625,172.0625 C177.625,172.0625 190.1875,168.125 218.875,187.4375 C230.875,184.0625 243.625,182.375 256.375,182.375 C269.125,182.375 281.875,184.0625 293.875,187.4375 C322.5625,167.9375 335.125,172.0625 335.125,172.0625 C343.375,192.6875 338.125,208.0625 336.625,211.8125 C346.1875,222.3125 352,235.625 352,252.125 C352,309.6875 316.9375,322.4375 283.5625,326.1875 C289,330.875 293.6875,339.875 293.6875,353.9375 C293.6875,374 293.5,390.125 293.5,395.1875 C293.5,399.125 296.3125,403.8125 303.8125,402.3125 C363.0625,382.4375 406,326.1875 406,260 C406,177.125 338.875,110 256,110 L256,110 Z" id="Shape"></path>
        </g>
    </g>
</svg>