<svg width="512px" height="512px" viewBox="0 0 512 512" version="1.1" xmlns="http://www.w3.org/2000/svg" xmlns:xlink="http://www.w3.org/1999/xlink">
    <!-- Generator: Sketch 41.1 (35376) - http://www.bohemiancoding.com/sketch -->
    <title>Instagram</title>
    <desc>Created with Sketch.</desc>
    <defs></defs>
    <g id="Page-1" stroke="none" stroke-width="1" fill="none" fill-rule="evenodd">
        <g id="Instagram" fill="#000000">
            <g id="Instagram_simple_icon" transform="translate(107.000000, 107.000000)">
                <g id="Group">
                    <path d="M150,27.0660714 C190.039286,27.0660714 194.781548,27.2190476 210.595238,27.9404762 C225.215476,28.6077381 233.154762,31.05 238.439286,33.1035714 C244.952435,35.5074523 250.844037,39.3404716 255.680952,44.3208333 C260.661314,49.157749 264.494333,55.0493508 266.898214,61.5625 C268.951786,66.8464286 271.394643,74.7863095 272.06131,89.4065476 C272.782738,105.219048 272.935714,109.96131 272.935714,150.001786 C272.935714,190.042262 272.782738,194.783333 272.06131,210.597024 C271.394048,225.217262 268.95119,233.156548 266.898214,238.441071 C261.8535,251.518702 251.516916,261.855286 238.439286,266.9 C233.155357,268.953571 225.215476,271.396429 210.595238,272.063095 C194.785714,272.784524 190.043452,272.9375 150,272.9375 C109.956548,272.9375 105.216071,272.784524 89.4047619,272.063095 C74.7845238,271.395833 66.8452381,268.952976 61.5607143,266.9 C55.047556,264.496137 49.1559504,260.663115 44.3190476,255.682738 C39.3387016,250.84581 35.5056848,244.954212 33.1017857,238.441071 C31.0482143,233.157143 28.6053571,225.217262 27.9386905,210.597024 C27.2172619,194.785119 27.0642857,190.042262 27.0642857,150.001786 C27.0642857,109.96131 27.2172619,105.220238 27.9386905,89.4065476 C28.6059524,74.7863095 31.0482143,66.8470238 33.1017857,61.5625 C35.5059349,55.0490262 39.3393717,49.1572045 44.3202381,44.3202381 C49.1571667,39.3398921 55.0487647,35.5068753 61.5619048,33.1029762 C66.8458333,31.0494048 74.7857143,28.6065476 89.4059524,27.939881 C105.218452,27.2184524 109.960714,27.0654762 150.00119,27.0654762 L150,27.0660714 Z M150.00119,0.0470238095 C109.27619,0.0470238095 104.167857,0.219642857 88.1761905,0.949404762 C72.214881,1.67797619 61.314881,4.2125 51.7767857,7.91964286 C41.7711897,11.6848995 32.7073341,17.587375 25.2172619,25.2154762 C17.5874416,32.7050787 11.683318,41.7689697 7.91666667,51.775 C4.2125,61.3136905 1.67797619,72.2136905 0.952380952,88.175 C0.219642857,104.166667 0.0470238095,109.275 0.0470238095,150 C0.0470238095,190.725 0.219642857,195.833333 0.952380952,211.825 C1.68095238,227.78631 4.21547619,238.68631 7.92261905,248.224405 C11.6878929,258.229992 17.590366,267.293844 25.2184524,274.783929 C32.7085002,282.41206 41.7723628,288.31454 51.7779762,292.079762 C61.3166667,295.786905 72.2166667,298.321429 88.177381,299.05 C104.171429,299.779762 109.277976,299.952381 150.002381,299.952381 C190.726786,299.952381 195.835714,299.779762 211.827381,299.05 C227.78869,298.321429 238.68869,295.786905 248.226786,292.079762 C268.368894,284.289565 284.291946,268.366513 292.082143,248.224405 C295.789286,238.685714 298.32381,227.785714 299.052381,211.825 C299.782143,195.830952 299.954762,190.724405 299.954762,150 C299.954762,109.275595 299.782143,104.166667 299.052381,88.175 C298.32381,72.2136905 295.789286,61.3136905 292.082143,51.7755952 C288.31692,41.7699819 282.414441,32.7061192 274.78631,25.2160714 C267.296085,17.5864494 258.231569,11.6827223 248.225,7.91666667 C238.68631,4.2125 227.78631,1.67797619 211.825,0.952380952 C195.833333,0.219642857 190.725,0.0470238095 150,0.0470238095 L150,0.0470238095 L150.00119,0.0470238095 Z" id="Shape"></path>
                    <path d="M150,72.9970238 C107.472431,72.9970238 72.9970238,107.472431 72.9970238,150 C72.9970238,192.527569 107.472431,227.002976 150,227.002976 C192.527569,227.002976 227.002976,192.527569 227.002976,150 C227.002976,107.472431 192.527569,72.9970238 150,72.9970238 L150,72.9970238 Z M150,199.983929 C122.394716,199.9836 100.016448,177.604887 100.016667,149.999603 C100.016886,122.394319 122.39551,100.015962 150.000794,100.016071 C177.606078,100.016181 199.984524,122.394716 199.984524,150 C199.984195,177.605458 177.605458,199.983929 150,199.983929 Z" id="Shape"></path>
                    <ellipse id="Oval" cx="230.045238" cy="69.9547619" rx="17.9940476" ry="17.9940476"></ellipse>
                </g>
            </g>
        </g>
    </g>
</svg>