<svg xmlns="http://www.w3.org/2000/svg" xmlns:xlink="http://www.w3.org/1999/xlink" width="512" height="512" version="1.1" viewBox="0 0 512 512"><title>LinkedIn</title><desc>Created with Sketch.</desc><g id="Page-1" fill="none" fill-rule="evenodd" stroke="none" stroke-width="1"><g id="LinkedIn"><rect id="Rectangle-path" width="300" height="299.97" x="106" y="106.017" fill="#000" rx="30.201" transform="translate(256.000000, 256.001839) scale(-1, 1) translate(-256.000000, -256.001839)"/><path id="Shape" fill="#FFF" fill-opacity="1" d="M201.988,357.775 L201.988,221.449 L156.676,221.449 L156.676,357.775 L201.988,357.775 Z M179.338,202.825 C195.139,202.825 204.9745,192.35665 204.9745,179.275 C204.68002,165.89815 195.1396,155.7205 179.638,155.7205 C164.1385,155.7205 154.003,165.8983 154.003,179.275 C154.003,192.3574 163.83595,202.825 179.0425,202.825 L179.336995,202.825 L179.338,202.825 Z"/><path id="Shape" fill="#FFF" fill-opacity="1" d="M227.068,357.775 L272.38,357.775 L272.38,281.644 C272.38,277.56955 272.67448,273.4993 273.87097,270.58675 C277.14667,262.4461 284.60227,254.01475 297.11947,254.01475 C313.51597,254.01475 320.07547,266.5162 320.07547,284.84275 L320.07547,357.77425 L365.38447,357.77425 L365.38447,279.60625 C365.38447,237.73225 343.02997,218.24875 313.21747,218.24875 C288.77347,218.24875 278.04097,231.9121 272.07847,241.21825 L272.38102,241.21825 L272.38102,221.44675 L227.06902,221.44675 C227.663635,234.23875 227.06902,357.77275 227.06902,357.77275 L227.068,357.775 Z"/></g></g></svg>