<svg width="512px" height="512px" viewBox="0 0 512 512" version="1.1" xmlns="http://www.w3.org/2000/svg" xmlns:xlink="http://www.w3.org/1999/xlink">
    <!-- Generator: Sketch 41.1 (35376) - http://www.bohemiancoding.com/sketch -->
    <title>Medium</title>
    <desc>Created with Sketch.</desc>
    <defs></defs>
    <g id="Page-1" stroke="none" stroke-width="1" fill="none" fill-rule="evenodd">
        <g id="Medium" fill="#231F20">
            <g id="Medium_icon" transform="translate(106.000000, 137.000000)">
                <g id="svg2">
                    <g id="g10" transform="translate(150.000000, 119.278210) scale(1, -1) translate(-150.000000, -119.278210) translate(0.000000, 0.346171)">
                        <g id="g12">
                            <path d="M299.999993,202.405782 L288.134993,202.405782 C283.729993,202.405782 277.499993,196.054239 277.499993,191.987882 L277.499993,44.6042372 C277.499993,40.5328824 283.729993,34.9837154 288.134993,34.9837154 L299.999993,34.9837154 L299.999993,9.9475983e-14 L192.499995,9.9475983e-14 L192.499995,34.9837154 L214.999995,34.9837154 L214.999995,189.911598 L213.897495,189.911598 L161.355496,9.9475983e-14 L120.676747,9.9475983e-14 L68.8124983,189.911598 L67.4999983,189.911598 L67.4999983,34.9837154 L89.9999978,34.9837154 L89.9999978,9.9475983e-14 L0,9.9475983e-14 L0,34.9837154 L11.5244247,34.9837154 C16.2704996,34.9837154 22.4999994,40.5328824 22.4999994,44.6042372 L22.4999994,191.987882 C22.4999994,196.054239 16.2704996,202.405782 11.5244247,202.405782 L0,202.405782 L0,237.389498 L112.540997,237.389498 L149.490246,99.9534727 L150.506746,99.9534727 L187.797745,237.389498 L299.999993,237.389498 L299.999993,202.405782" id="path14"></path>
                        </g>
                    </g>
                </g>
            </g>
        </g>
    </g>
</svg>