<svg width="512px" height="512px" viewBox="0 0 512 512" version="1.1" xmlns="http://www.w3.org/2000/svg" xmlns:xlink="http://www.w3.org/1999/xlink">
    <!-- Generator: Sketch 41.1 (35376) - http://www.bohemiancoding.com/sketch -->
    <title>Society6</title>
    <desc>Created with Sketch.</desc>
    <defs></defs>
    <g id="Page-1" stroke="none" stroke-width="1" fill="none" fill-rule="evenodd">
        <g id="Society6" fill="#000000">
            <g id="society6" transform="translate(98.000000, 139.000000)">
                <g id="Group">
                    <g id="Shape">
                        <path d="M172.662962,19.4735 C175.540678,19.4735 178.418394,18.5157869 180.656618,16.6003607 C182.575095,14.6849344 183.85408,12.4502705 183.85408,9.57713115 C183.85408,7.02322951 182.575095,4.78856557 180.656618,2.87313934 C178.418394,0.957713115 175.540678,0 172.662962,0 C169.4655,0 166.90753,0.957713115 164.669306,2.87313934 C162.431083,4.78856557 161.152098,7.02322951 161.152098,9.57713115 C161.152098,12.4502705 162.431083,14.6849344 164.669306,16.6003607 C166.90753,18.5157869 169.4655,19.4735 172.662962,19.4735 L172.662962,19.4735 Z M292.567797,63.847541 C290.969065,65.7629672 288.730842,67.039918 286.492618,68.3168689 C284.574141,69.5938197 282.655664,69.9130574 281.376679,69.9130574 C279.458201,69.9130574 278.179216,69.5938197 277.539724,68.6361066 C276.900232,67.6783934 276.260739,66.4014426 276.260739,64.8052541 C276.260739,64.1667787 276.580485,63.2090656 276.580485,61.9321148 C276.900232,60.6551639 277.219978,59.3782131 277.539724,58.1012623 L281.056932,45.0125164 C281.376679,43.4163279 281.696425,42.139377 281.696425,40.5431885 C282.016171,38.947 282.016171,37.6700492 282.016171,37.0315738 C282.016171,34.1584344 280.737186,31.6045328 278.818709,29.6891066 C276.580485,27.4544426 273.702769,26.4967295 269.865815,26.4967295 C267.947337,26.4967295 265.709114,27.1352049 263.151144,27.7736803 C262.831398,27.7736803 262.191905,28.092918 261.872159,28.092918 L248.762564,28.092918 L252.279772,12.7695082 L236.612207,12.7695082 L233.094999,28.092918 L224.142104,28.092918 L222.863119,33.2007213 C222.223627,31.2852951 220.944642,30.0083443 219.345911,28.7313934 C216.148449,26.8159672 211.672001,25.8582541 205.916569,25.8582541 C201.120376,25.8582541 196.643929,26.8159672 192.487228,28.7313934 C188.650273,30.327582 185.133065,32.8814836 182.575095,35.754623 C179.697379,38.6277623 177.778902,42.139377 176.18017,45.6509918 C174.901186,49.4818443 173.941947,53.3126967 173.941947,57.4627869 C173.941947,60.3359262 174.581439,63.2090656 175.540678,66.0822049 C176.18017,67.3591557 176.819663,68.9553443 177.459155,70.2322951 C177.139409,70.5515328 176.18017,70.8707705 175.220932,71.1900082 C173.941947,71.5092459 172.662962,71.5092459 171.703723,71.5092459 C169.785246,71.5092459 168.186515,71.1900082 167.547022,70.5515328 C166.587784,69.9130574 166.268037,68.3168689 166.268037,66.4014426 C166.268037,65.7629672 166.268037,64.4860164 166.587784,63.2090656 C166.90753,61.612877 167.227276,60.3359262 167.547022,59.0589754 L171.383977,44.374041 C171.703723,43.0970902 172.023469,41.5009016 172.343216,39.9047131 L172.343216,36.3930984 C172.343216,33.2007213 171.383977,30.9660574 169.4655,29.0506311 C167.227276,26.8159672 164.34956,25.8582541 160.512605,25.8582541 C158.274382,25.8582541 156.036158,26.4967295 153.797935,27.1352049 C151.239965,28.092918 148.681995,29.0506311 146.124025,30.0083443 C145.804279,29.6891066 145.484533,29.3698689 145.164787,29.3698689 C142.28707,27.1352049 137.810623,25.8582541 132.055191,25.8582541 C127.258998,25.8582541 122.782551,26.8159672 118.945596,28.7313934 C114.788895,30.327582 111.591433,32.8814836 109.033463,35.754623 C106.155747,38.6277623 104.23727,41.8201393 102.958285,45.6509918 C102.318792,47.2471803 101.6793,48.8433689 101.359554,50.7587951 C101.6793,49.4818443 101.6793,48.2048934 101.6793,46.9279426 C101.6793,40.5431885 99.7608225,35.1161475 95.2843753,31.6045328 C93.3658979,29.6891066 90.8079281,28.092918 87.6104659,27.1352049 L91.4474206,19.7927377 L85.6919885,19.7927377 L82.4945263,26.1774918 C80.8957951,25.8582541 79.6168102,25.8582541 78.3378253,25.8582541 C73.2218857,25.8582541 69.0651848,26.8159672 64.9084838,28.4121557 C60.7517829,30.0083443 57.2345744,32.2430082 54.3568584,35.1161475 C51.4791424,37.9892869 49.2409188,41.1816639 47.6421876,45.0125164 C46.0434565,48.8433689 45.4039641,52.993459 45.4039641,57.4627869 L45.4039641,59.6974508 C45.0842178,56.8243115 43.8052329,54.5896475 42.2065018,52.6742213 C39.9682782,50.4395574 36.770816,48.5241311 32.2943688,46.9279426 C30.3758915,45.9702295 28.7771603,45.6509918 27.4981754,45.0125164 C26.2191905,44.374041 25.2599518,44.0548033 24.3007132,43.4163279 C23.6612207,42.7778525 23.0217283,42.139377 22.701982,41.1816639 C22.0624896,40.5431885 21.7427434,39.2662377 21.7427434,37.9892869 C21.7427434,35.4353852 22.701982,33.519959 24.6204594,31.9237705 C26.5389367,30.327582 28.4574141,29.6891066 30.6956377,29.3698689 C31.0153839,30.6468197 31.3351301,31.6045328 31.9746226,33.2007213 C32.2943688,34.7969098 32.9338613,36.0738607 33.8930999,37.6700492 C34.5325924,38.947 35.4918311,40.2239508 36.770816,41.1816639 C38.0498009,42.139377 39.648532,42.7778525 41.5670094,42.7778525 C43.4854867,42.7778525 45.4039641,42.139377 46.682949,40.8624262 C47.9619339,39.5854754 48.6014263,37.9892869 48.6014263,36.0738607 C48.6014263,34.1584344 48.2816801,32.5622459 47.3224414,31.2852951 C46.3632027,30.0083443 45.0842178,29.0506311 43.1657405,28.092918 C41.5670094,27.4544426 39.648532,26.8159672 37.4103084,26.4967295 C35.4918311,26.1774918 32.9338613,25.8582541 30.6956377,25.8582541 C26.5389367,25.8582541 23.0217283,26.4967295 19.824266,27.4544426 C16.94655,28.4121557 14.3885802,29.6891066 12.4701028,30.9660574 C10.2318792,32.5622459 8.95289432,34.4776721 7.99365565,36.3930984 C7.03441697,38.3085246 6.39492452,40.2239508 6.39492452,42.4586148 C6.39492452,45.9702295 7.67390942,49.1626066 9.912133,51.7165082 C12.1503566,53.9511721 15.3478188,55.8665984 19.1847735,57.4627869 C20.4637585,57.7820246 22.0624896,58.4205 23.3414745,59.0589754 C24.9402056,59.6974508 25.8994443,60.0166885 26.858683,60.6551639 C27.8179216,61.2936393 28.7771603,62.2513525 29.0969065,62.8898279 C29.736399,63.847541 30.0561452,64.8052541 30.0561452,66.0822049 C30.0561452,68.9553443 29.0969065,71.1900082 27.1784292,72.7861967 C25.2599518,74.3823852 22.701982,75.3400984 18.8650273,75.3400984 C18.8650273,74.3823852 18.2255349,73.1054344 17.9057886,71.5092459 C17.2662962,69.5938197 16.6268037,67.9976311 15.6675651,66.7206803 C15.0280726,65.1244918 13.7490877,63.5283033 12.4701028,62.5705902 C11.1911179,61.612877 9.59238677,60.9744016 7.67390942,60.9744016 C5.43568584,60.9744016 3.51720848,61.9321148 2.23822358,63.2090656 C0.639492452,64.8052541 0,66.4014426 0,68.3168689 C0,69.5938197 0.319746226,70.5515328 0.959238677,71.8284836 C1.59873113,73.1054344 2.55796981,74.3823852 4.15670094,75.3400984 C5.75543206,76.2978115 7.67390942,77.2555246 10.5516255,77.894 C13.1095953,78.5324754 16.3070575,79.1709508 20.4637585,79.1709508 C24.9402056,79.1709508 28.7771603,78.5324754 31.6548764,77.894 C34.5325924,76.9362869 37.0905622,75.6593361 39.3287858,74.0631475 C41.2472631,72.466959 42.8459943,70.8707705 43.8052329,68.6361066 C45.0842178,66.4014426 45.4039641,63.847541 45.4039641,61.612877 L45.4039641,60.6551639 C46.0434565,65.7629672 47.9619339,69.9130574 51.4791424,73.1054344 C53.0778735,74.3823852 54.6766046,75.6593361 56.2753357,76.2978115 L52.7581273,83.321041 L58.5135593,83.321041 L61.0715291,78.2132377 C63.3097527,78.8517131 65.5479763,78.8517131 68.1059461,78.8517131 C73.2218857,78.8517131 78.0180791,78.2132377 82.17478,76.6170492 C86.331481,74.701623 89.8486895,72.466959 92.7264055,69.274582 C95.6041215,66.4014426 97.8423451,63.2090656 99.4410762,59.3782131 C100.080569,57.1435492 100.720061,55.228123 101.039807,53.3126967 L101.039807,57.1435492 C101.039807,63.847541 102.958285,69.274582 107.114986,73.1054344 C111.271687,76.9362869 117.027119,79.1709508 124.381282,79.1709508 C129.177475,79.1709508 133.973669,77.5747623 138.13037,75.0208607 C142.606817,72.466959 146.124025,68.9553443 148.681995,64.8052541 L145.164787,61.612877 C142.606817,65.1244918 140.368593,67.6783934 137.810623,68.9553443 C135.5724,70.5515328 132.694684,71.1900082 129.177475,71.1900082 C125.660267,71.1900082 122.782551,69.9130574 121.18382,67.039918 C119.265342,64.1667787 118.306104,60.3359262 118.306104,54.9088852 C118.306104,47.8856557 119.585088,41.8201393 121.823312,37.0315738 C124.381282,32.2430082 127.578744,30.0083443 131.415699,30.0083443 C132.694684,30.0083443 133.973669,30.327582 134.613161,30.6468197 C135.5724,31.2852951 136.211892,31.9237705 136.531638,32.2430082 C135.5724,33.8391967 134.613161,35.754623 133.973669,37.3508115 C133.334176,38.947 133.01443,40.5431885 133.01443,42.4586148 C133.01443,43.7355656 133.653922,45.0125164 134.932907,46.6087049 C136.531638,47.8856557 138.450116,48.5241311 141.008086,48.5241311 C142.926563,48.5241311 144.205548,48.2048934 145.164787,47.566418 C146.124025,46.9279426 147.083264,46.2894672 147.722756,45.0125164 C148.362249,44.0548033 149.001741,43.0970902 149.321487,41.8201393 C149.641234,40.5431885 149.641234,39.2662377 149.641234,38.3085246 C149.641234,36.3930984 149.321487,34.7969098 148.681995,33.519959 C149.641234,33.2007213 150.280726,33.2007213 151.239965,33.2007213 C153.158442,33.2007213 154.757173,33.519959 155.396666,34.1584344 C156.036158,35.1161475 156.355904,36.3930984 156.355904,38.3085246 C156.355904,39.2662377 156.355904,40.2239508 156.036158,41.5009016 C156.036158,42.7778525 155.716412,44.374041 155.07692,45.6509918 L151.239965,60.3359262 C150.920219,61.9321148 150.600472,63.5283033 150.600472,64.4860164 C150.280726,65.7629672 150.280726,67.039918 150.280726,68.3168689 C150.280726,71.1900082 151.239965,73.7439098 153.478188,75.6593361 C155.716412,77.5747623 158.594128,78.8517131 162.431083,78.8517131 C164.989053,78.8517131 167.227276,78.2132377 169.145753,77.5747623 C171.064231,76.9362869 173.622201,75.9785738 176.819663,74.701623 L177.778902,70.2322951 C178.418394,71.1900082 179.057886,72.1477213 179.697379,72.7861967 C181.615856,74.701623 183.85408,76.2978115 187.051542,77.2555246 C189.929258,78.5324754 193.12672,79.1709508 196.963675,79.1709508 C202.079615,79.1709508 206.875808,77.5747623 211.352255,75.0208607 C215.828702,72.466959 219.665657,68.9553443 222.543373,64.8052541 L219.026165,61.612877 C216.468195,65.1244918 213.910225,67.3591557 211.352255,68.9553443 C208.794285,70.5515328 205.596823,71.1900082 201.759868,71.1900082 C199.521645,71.1900082 197.603168,70.8707705 196.324183,69.9130574 C194.725452,68.9553443 193.766213,67.9976311 193.12672,66.4014426 C192.487228,65.1244918 191.847735,63.5283033 191.527989,61.612877 C191.208243,59.6974508 190.888497,58.1012623 190.888497,56.5050738 C194.405705,56.1858361 197.603168,55.8665984 200.161137,55.228123 C202.719107,54.9088852 205.596823,53.9511721 209.114032,52.993459 C213.590479,51.7165082 217.107687,49.801082 219.665657,46.9279426 C222.543373,44.374041 223.822358,41.1816639 223.822358,37.6700492 C223.822358,36.0738607 223.502612,34.7969098 222.863119,33.519959 L231.816014,33.519959 L225.740835,60.3359262 C225.421089,62.2513525 225.101343,63.5283033 224.781597,64.4860164 L224.781597,68.3168689 C224.781597,71.1900082 225.740835,73.7439098 228.298805,75.6593361 C230.537029,77.5747623 233.734491,78.5324754 237.571446,78.5324754 C239.809669,78.5324754 242.367639,78.2132377 245.245355,77.5747623 C248.123071,76.9362869 251.000787,75.6593361 253.878503,74.3823852 L254.837742,69.9130574 C254.19825,70.2322951 252.919265,70.5515328 251.000787,70.8707705 C249.402056,71.1900082 248.123071,71.5092459 247.163833,71.5092459 C244.925609,71.5092459 243.326878,71.1900082 242.367639,70.5515328 C241.4084,69.5938197 240.768908,68.3168689 240.768908,66.4014426 C240.768908,66.0822049 241.088654,65.1244918 241.088654,63.847541 C241.4084,62.5705902 241.728147,61.2936393 241.728147,60.3359262 L247.803325,33.519959 L260.593174,33.519959 C262.511651,33.519959 264.110383,34.1584344 264.749875,34.7969098 C265.389367,35.4353852 266.02886,36.7123361 266.02886,38.6277623 C266.02886,39.5854754 265.709114,40.8624262 265.389367,42.4586148 C265.069621,44.0548033 264.749875,45.3317541 264.749875,46.2894672 L260.91292,60.0166885 C260.593174,61.9321148 260.273428,63.5283033 259.953682,64.4860164 L259.953682,67.6783934 C259.953682,70.8707705 260.91292,73.4246721 262.831398,75.3400984 C264.749875,77.5747623 267.627591,78.5324754 271.144799,78.5324754 C274.981754,78.5324754 278.179216,77.894 281.376679,76.6170492 C284.254395,75.0208607 287.771603,72.7861967 291.288812,69.274582 C290.969065,73.7439098 289.690081,77.894 288.411096,81.086377 C287.132111,84.5979918 285.853126,87.4711311 284.254395,89.7057951 C283.295156,90.6635082 282.655664,91.6212213 282.016171,92.2596967 C281.376679,92.8981721 280.737186,93.5366475 279.777948,93.8558852 C279.138455,94.4943607 278.498963,94.8135984 277.539724,95.1328361 C276.900232,95.4520738 275.940993,95.4520738 275.621247,95.7713115 C274.981754,94.8135984 274.342262,93.5366475 273.702769,91.940459 C272.743531,90.3442705 272.104038,88.748082 271.144799,87.4711311 C269.865815,85.8749426 268.906576,84.9172295 267.307845,83.9595164 C266.02886,83.0018033 264.430129,82.3633279 262.831398,82.3633279 C260.593174,82.3633279 258.674697,83.321041 257.395712,84.5979918 C256.116727,86.1941803 255.477234,87.7903689 255.477234,90.0250328 C255.477234,90.9827459 255.477234,92.2596967 256.116727,93.2174098 C256.436473,94.4943607 257.395712,95.4520738 258.674697,96.4097869 C260.273428,97.3675 262.191905,98.3252131 264.749875,98.9636885 C267.307845,99.6021639 270.185561,99.9214016 274.022516,99.9214016 C277.539724,99.9214016 281.056932,99.2829262 284.574141,98.3252131 C288.091349,97.3675 290.969065,95.7713115 294.166528,93.5366475 C297.044244,90.9827459 299.92196,87.7903689 302.160183,83.9595164 C304.398407,79.8094262 306.316884,74.701623 307.595869,68.6361066 L315.909271,27.4544426 L315.269779,26.8159672 L299.92196,27.4544426 L292.567797,63.847541 Z M62.350514,63.5283033 C62.350514,60.3359262 62.6702603,56.8243115 62.9900065,52.993459 C63.6294989,49.1626066 64.2689914,45.3317541 65.5479763,42.139377 C66.8269612,37.9892869 68.4256923,35.1161475 70.3441697,32.8814836 C72.5823933,30.9660574 74.8206168,29.6891066 77.3785866,29.6891066 C78.3378253,29.6891066 79.297064,30.0083443 80.2563027,30.327582 L62.350514,64.8052541 L62.350514,63.5283033 L62.350514,63.5283033 Z M83.7735112,52.6742213 C83.1340187,56.5050738 82.4945263,60.0166885 81.2155414,63.2090656 C80.2563027,66.7206803 78.6575715,69.274582 76.7390942,71.5092459 C74.8206168,73.7439098 72.5823933,75.0208607 69.7046772,75.0208607 C67.4664536,75.0208607 65.5479763,74.0631475 64.2689914,72.1477213 L83.7735112,34.7969098 C84.4130036,36.3930984 84.7327498,38.6277623 84.7327498,41.1816639 C84.7327498,45.0125164 84.4130036,48.5241311 83.7735112,52.6742213 L83.7735112,52.6742213 Z M206.556062,45.9702295 C205.277077,47.566418 203.678346,49.1626066 201.120376,50.1203197 C200.161137,50.7587951 198.562406,51.0780328 196.643929,51.3972705 C195.045198,52.0357459 193.12672,52.3549836 191.208243,52.3549836 C191.847735,45.9702295 193.12672,40.5431885 195.364944,36.3930984 C197.603168,32.2430082 199.841391,30.0083443 202.399361,30.0083443 C203.998092,30.0083443 205.596823,30.6468197 206.556062,32.2430082 C207.515301,33.8391967 208.154793,36.0738607 208.154793,38.947 C208.154793,41.8201393 207.515301,44.0548033 206.556062,45.9702295 L206.556062,45.9702295 Z M204.354562,153.493496 C197.785666,147.468737 189.90299,144.456357 180.049646,144.456357 C171.510081,144.456357 164.284295,145.661309 158.372289,147.468737 C152.460282,149.878641 147.205165,152.89102 142.606938,156.505876 C145.234496,150.481116 147.862055,145.058833 150.489613,139.636549 C153.117172,134.214266 156.40162,129.394458 160.999847,125.177127 C164.941185,120.357319 170.196302,116.742464 176.108308,113.127608 C182.020315,108.910276 189.246101,106.500372 197.785666,104.090469 L208.2959,102.283041 L207.63901,93.2459016 C175.451419,96.8607573 149.832724,107.705324 130.782925,125.177127 C111.076236,143.251405 101.879781,164.338063 101.879781,189.642053 C101.879781,202.896524 105.821119,213.138615 114.360684,220.970802 C122.900249,228.802989 134.724262,233.020321 149.175834,233.020321 C167.568743,233.020321 182.677205,227.598038 195.158107,216.753471 C207.63901,205.908903 214.207906,192.654433 214.207906,178.19501 C214.207906,167.952919 210.923458,160.120732 204.354562,153.493496 L204.354562,153.493496 Z M171.436949,210.496059 C166.181832,219.533198 159.612936,224.353006 152.38715,224.353006 C147.788922,224.353006 143.847585,221.943102 141.220026,217.725771 C138.592468,212.905963 137.278689,206.278728 137.278689,197.844064 C137.278689,190.011877 137.278689,183.384642 138.592468,177.962358 C139.906247,172.540075 140.563137,168.322743 141.220026,166.515315 C145.161364,162.297984 148.445812,159.88808 151.73026,158.080652 C155.671598,156.8757 158.956046,156.273224 162.897384,156.273224 C167.495611,156.273224 171.436949,158.080652 174.721397,161.695508 C178.005845,165.912839 179.319624,170.732647 179.319624,177.359882 C179.319624,190.614353 176.692066,201.45892 171.436949,210.496059 L171.436949,210.496059 Z"></path>
                    </g>
                </g>
            </g>
        </g>
    </g>
</svg>