<svg width="512px" height="512px" viewBox="0 0 512 512" version="1.1" xmlns="http://www.w3.org/2000/svg" xmlns:xlink="http://www.w3.org/1999/xlink">
    <!-- Generator: Sketch 41.1 (35376) - http://www.bohemiancoding.com/sketch -->
    <title>Twitter</title>
    <desc>Created with Sketch.</desc>
    <defs></defs>
    <g id="Page-1" stroke="none" stroke-width="1" fill="none" fill-rule="evenodd">
        <g id="Twitter" fill="#000000">
            <g id="Twitter_bird_logo_2012" transform="translate(106.000000, 134.000000)">
                <g id="Group" transform="translate(0.820000, 0.140000)">
                    <path d="M93.9,243.04 C206.36,243.04 267.86,149.872 267.86,69.08 C267.86,66.4337 267.8061,63.7994 267.6874,61.177 C279.6254,52.5468 290.0014,41.777 298.1854,29.517 C287.2304,34.3864 275.4414,37.6644 263.0744,39.1425 C275.6974,31.5732 285.3884,19.5995 289.9604,5.3255 C278.1474,12.3286 265.0654,17.4185 251.1364,20.1665 C239.9794,8.2825 224.0954,0.8495 206.5074,0.8495 C172.7434,0.8495 145.3634,28.2305 145.3634,61.9815 C145.3634,66.7793 145.8998,71.4461 146.9488,75.9225 C96.1338,73.3656 51.0748,49.0365 20.9188,12.0425 C15.668,21.0779 12.6403,31.5735 12.6403,42.7725 C12.6403,63.9845 23.4343,82.7105 39.8483,93.6655 C29.8173,93.35558 20.3943,90.602 12.1583,86.0187 C12.1493,86.27522 12.1493,86.52531 12.1493,86.79947 C12.1493,116.40947 33.2243,141.13147 61.2003,146.73347 C56.0627,148.13407 50.6573,148.88507 45.0783,148.88507 C41.1447,148.88507 37.3123,148.49791 33.5873,147.78247 C41.3711,172.07547 63.9423,189.75347 90.7023,190.24747 C69.7763,206.64947 43.4153,216.41847 14.7653,216.41847 C9.8363,216.41847 4.967,216.13811 0.1813,215.57213 C27.2403,232.91613 59.3703,243.03613 93.9033,243.03613" id="Shape"></path>
                </g>
            </g>
        </g>
    </g>
</svg>