<svg width="927" height="523" xmlns="http://www.w3.org/2000/svg" class="event-logo mb-4"><g fill-rule="nonzero" fill="none"><path d="M859.026 395.814s-358.28 127.03-391.635 127.03c-33.353 0-382.74-127.03-382.74-127.03-18.141-7.068-28.618-11.319-28.618-25.152V239.237c0-13.835 12.878-25.152 28.618-25.152h774.375c15.74 0 28.617 11.317 28.617 25.152v131.425c0 13.833-12.585 16.208-28.617 25.152" fill="#D84538"/><path d="m154.2 303.605-.209 29.458c-.06 8.508-.568 15.598-1.518 21.218-.952 5.621-2.526 9.902-4.718 12.874-2.19 2.971-5.11 4.626-8.75 5.04-3.64.411-8.18-.314-13.624-2.093a1231.867 1231.867 0 0 0-9.214-2.98c.135-37.115.263-74.23.398-111.345 3.86.134 5.79.202 9.652.344 5.372.194 9.877 1.15 13.509 2.92 3.628 1.77 6.53 4.484 8.693 8.196 2.166 3.712 3.686 8.537 4.56 14.504.875 5.968 1.282 13.273 1.22 21.864m27.094-31.107c-2.766-10.27-6.72-18.499-11.867-24.932-5.145-6.432-11.379-11.052-18.692-14.188-7.313-3.135-15.447-4.628-24.385-4.637-13.656-.016-27.312-.027-40.967-.034v154.971c13.376 4.255 26.687 8.85 39.868 13.676 8.904 3.236 16.981 4.804 24.25 4.472 7.265-.332 13.506-2.516 18.73-6.933 5.223-4.412 9.285-11.058 12.18-20.175 2.896-9.117 4.412-20.707 4.54-34.4l.293-31.683c.128-13.694-1.185-25.865-3.95-36.137M286.753 361.036c-16.2-3.389-32.361-6.966-48.497-10.645-.228 19.53-.464 39.061-.713 58.592 19.033 6.535 38.106 12.884 57.289 18.97-.212 14.985-.317 21.95-.53 33.77-29.617-10.39-58.862-21.648-88.063-33.148.858-66.572 1.4-133.15 2.258-199.723 29.586.046 59.17.087 88.756.116a7637.425 7637.425 0 0 0-.532 33.92c-19.133-.67-38.261-1.4-57.39-2.17-.226 17.318-.434 34.637-.636 51.957 16.176 2.33 32.362 4.585 48.566 6.705l-.508 41.656M363.769 419.378c9.284-63.332 14.948-127.738 28.221-190.407 13.968-.013 20.952-.024 34.922-.053-22.28 84.312-24.22 173.02-47.46 257.157-13.222-2.863-19.804-4.507-32.923-8.103-17.861-82.244-22.605-166.894-41.293-248.997 13.878.01 20.818.013 34.7.016 11.304 62.879 16.345 126.984 23.833 190.387M623.87 367.885c-16.315 3.008-32.686 5.731-49.107 8.087-.247 24.03-.495 48.06-.784 72.09 19.604-4.569 39.007-9.614 58.381-15.073-.142 15.314-.214 20.207-.357 32.122-29.613 9.062-59.219 19.058-89.61 25.002 1.315-87.052 1.4-174.118 2.757-261.172 29.592.04 59.185.052 88.776.044-.143 11.963-.216 19.092-.36 34.483a5125.55 5125.55 0 0 1-57.623 1.23c-.261 21.254-.483 42.506-.7 63.76 16.36-1.353 32.696-2.977 49.007-4.814l-.38 44.241M870.246 254.284c-12.696.424-25.393.89-38.087 1.392.352 45.327.694 90.655 1.055 135.981-12.317 4.775-18.547 7.238-31.101 12.21-.463-48.974-.863-97.946-1.299-146.92-12.58.526-25.157 1.064-37.736 1.604-.084-12.531-.127-18.567-.21-29.712 35.794-.054 71.585-.103 107.378-.135v25.58zM520.125 389.773c-15.768 1.386-31.61 2.358-47.445 2.316-.024 34.931-.044 82.536-.087 117.466-13.055-.052-19.547-3.036-32.468-4.144.683-88.839.67-187.69 1.375-276.527 28.593-.081 57.182-.04 85.774.027-.16 11.676-.238 19.225-.398 36.021-18.036-.079-36.068-.617-54.104-.604-.022 24.816-.04 49.63-.056 74.445 15.933-.022 31.857-.204 47.776-.878l-.367 51.878M717.78 382.017c-.004-3.636-.26-6.861-.77-9.652-.507-2.79-1.577-5.29-3.203-7.507-1.628-2.217-3.943-4.226-6.94-6.053-2.995-1.825-6.986-3.627-11.963-5.481a77.07 77.07 0 0 1-16.907-7.995c-5.353-3.375-10.048-7.855-14.078-13.4-4.031-5.545-7.222-12.335-9.571-20.183-2.35-7.844-3.484-17.178-3.41-27.458.071-9.847 1.35-18.511 3.829-25.962 2.478-7.448 5.924-13.348 10.329-17.989 4.404-4.64 9.61-7.99 15.623-10.325 6.01-2.336 12.63-3.434 19.866-3.434 7.451 0 14.175 1.251 20.178 3.819 6.002 2.568 11.133 6.179 15.38 10.955 4.249 4.773 7.533 10.596 9.848 17.598 2.316 7.002 3.498 14.908 3.542 23.874a9674.412 9674.412 0 0 1-31.42 2.88c-.005-4.464-.349-8.476-1.03-12.072-.683-3.592-1.758-6.606-3.222-9.08-1.465-2.472-3.338-4.362-5.618-5.692-2.282-1.331-5.027-1.946-8.235-1.839-2.995.1-5.583.78-7.759 2.072-2.18 1.292-3.986 3.037-5.42 5.264-1.436 2.227-2.516 4.893-3.24 8.015-.725 3.125-1.096 6.488-1.109 10.08-.012 3.693.53 7.04 1.63 9.973a27.104 27.104 0 0 0 4.707 8.032c2.038 2.408 4.508 4.593 7.411 6.53 2.903 1.937 6.115 3.749 9.633 5.415 7.324 2.778 13.724 5.916 19.192 9.44 5.468 3.526 10.047 7.632 13.732 12.34 3.686 4.707 6.444 10.148 8.272 16.344 1.828 6.198 2.764 13.342 2.806 21.399.044 8.592-1.054 16.372-3.299 23.53-2.244 7.155-5.479 13.523-9.707 19.23-4.23 5.708-9.368 10.704-15.41 15.073-6.047 4.368-12.875 7.938-20.475 10.712-6.872 2.51-13.619 3.872-20.22 3.948-6.607.075-12.481-1.421-17.619-4.86-5.138-3.437-9.25-8.957-12.338-17.004-3.09-8.045-4.574-18.985-4.471-32.878 12.79-3.122 19.203-4.76 32.021-8.131-.028 6.988.422 12.648 1.347 17.025.925 4.379 2.347 7.608 4.264 9.76 1.915 2.154 4.296 3.322 7.128 3.562 2.832.242 6.143-.284 9.928-1.551 3.053-1.021 5.655-2.467 7.799-4.324 2.142-1.856 3.886-3.985 5.23-6.407 1.342-2.416 2.3-5.106 2.878-8.097.578-2.99.865-6.147.861-9.496" fill="#FFF"/><g fill="#00ABFE"><path d="M64.497 207.105c-6.493-.24-20.924-5.772-23.329-10.582-2.404-29.58 36.316-125.3 52.43-160.653-32.709 25.012-70.707 84.655-72.15 122.413C10.144 154.917.284 142.41 1.005 131.59c7.456-33.67 48.1-88.263 101.491-113.998.481-.72.721-1.442 1.203-2.164 6.252-3.366 28.137.722 30.302 8.178C118.85 37.313 74.6 153.233 65.7 186.422c3.367 1.924 82.49-122.655 89.705-138.768 8.899-2.645 19.24-.481 26.696 4.57-19 42.087-44.733 111.351-50.745 134.198 25.012-25.973 75.276-110.15 93.795-170.273 5.53-4.088 28.618.24 30.784 7.936-12.747 34.392-72.872 137.566-125.782 183.02-6.493-.24-20.924-5.772-23.328-10.582 1.923-18.037 7.455-44.252 18.278-75.517-15.152 24.05-54.112 84.175-60.606 86.099M269.886 25.769c-10.341 17.076-9.62 16.355-16.355 33.91 3.127 1.683 11.064 3.849 18.04 4.811 10.1-14.43 20.44-24.292 32.466-37.277-11.544-2.647-25.494-2.647-34.15-1.444M204.47 178.245c4.57-21.644 24.772-75.276 39.923-106.781 5.05-.24 27.657 5.29 24.53 10.822-11.784 16.595-40.644 78.403-44.252 95.959 14.19-15.872 28.14-31.505 38-38.96 5.05-3.85 10.823-5.532 16.114.721-11.786 4.57-46.176 39.442-56.038 50.024-7.694.24-16.833-5.532-18.277-11.785"/><path d="M287.443 71.464c5.05-.24 27.657 5.29 24.29 10.822-4.089 6.254-10.822 20.683-18.518 35.354 10.1-15.632 28.138-30.543 37.036-39.202 4.089-3.608 8.417-5.772 12.025-4.329 2.887 1.443 13.468 8.417 13.468 12.025-.241 1.203-1.443 4.57-1.924 5.531-12.025 25.975-28.379 67.1-33.91 85.379 14.189-15.874 27.657-30.304 37.518-37.759 5.05-3.85 10.821-5.532 15.873.721-11.545 4.57-48.581 38.96-56.998 50.024-7.456.24-20.924-5.29-20.924-11.785 5.532-25.012 22.606-61.327 34.15-85.617-12.265 11.062-41.125 38.72-58.2 77.441-1.924 5.29-5.292 15.15-6.734 19.961-7.456 0-17.556-5.532-17.556-11.785 12.265-36.556 24.77-68.06 40.404-106.781"/><path d="m418.756 97.197-13.948-12.505c-9.38 9.379-21.885 30.783-30.303 50.264-.962 2.164-14.67 34.39-6.974 36.315 16.113-9.38 39.2-54.834 51.225-74.074m60.607-66.137c-27.9 46.416-57 116.641-68.303 147.185 14.19-15.873 28.139-31.505 38.24-38.961 4.81-3.848 10.581-5.53 15.873.721-11.785 4.57-46.176 39.443-56.037 50.026-7.696.24-16.835-5.532-18.277-11.786 1.202-7.214 5.532-20.442 11.302-36.316-11.784 20.684-25.733 41.367-39.682 46.658-6.494-.24-16.112-4.57-18.278-9.38-2.645-31.024 30.304-97.402 54.834-108.946 0 0 .24-.24.72 0 7.938 2.646 17.798 7.936 25.976 12.506 10.822-25.734 21.645-49.542 28.138-62.53 5.05-.24 28.62 5.292 25.494 10.823"/><path d="M477.918 185.941c-5.53-.24-7.936-.48-13.948-.24 8.417-6.013 17.075-17.557 25.012-30.544-2.647 10.102-6.253 20.683-11.064 30.784m-86.58 75.758c-37.999 3.606-26.935-31.266-.721-48.342 26.214-17.074 56.518-21.164 83.934-19.48-19.961 38.48-50.264 63.492-83.213 67.822m108.707-73.834c2.405-5.29 4.569-10.822 7.456-19 12.025-31.505 22.848-56.036 39.442-86.578 3.367-5.532-19.24-11.064-24.292-10.823-5.77 11.784-11.784 24.05-18.997 42.568-5.535 10.101-11.305 20.443-17.076 29.581-10.103 16.114-19.963 29.582-23.33 27.658-7.695-1.924 6.013-34.15 6.975-36.315 6.734-16.115 18.038-39.203 26.936-52.67 2.886-5.531-18.278-11.543-22.848-11.063-11.304 24.29-36.556 83.693-34.632 107.984 1.924 3.608 5.531 5.772 9.139 7.214-32.708 2.647-55.075 7.216-80.567 25.254-33.91 29.1-23.569 56.997 7.215 61.086 51.227 6.254 89.465-25.974 115.201-67.58 2.403-3.608 4.088-6.734 5.771-9.62 14.67 2.886 27.416 9.86 31.744 19.962 5.532-3.367 16.836-6.975 21.164-9.38-15.872-11.303-36.072-16.114-49.301-18.278M698.937 122.93c10.102.722 20.443 6.975 23.328 17.316-1.92 19.722-45.934 58.202-68.78 61.087-8.66-2.164-18.04-6.975-22.608-11.784-6.252-22.848-2.645-55.556 6.735-86.58-34.15 34.392-61.568 75.997-60.607 120.25-11.784-6.254-23.328-17.797-24.289-33.189 10.581-44.973 54.833-85.137 95.716-116.16C662.622 41.881 685.23 10.857 719.14.515c10.341 6.974 12.024 18.038 9.139 30.304 5.53-1.203 12.025-2.646 19-.963-12.027 12.747-33.19 50.745-33.43 66.137-10.824-6.493-18.518-16.113-18.278-22.606 3.126-8.658 12.265-21.886 21.645-32.708-9.38 5.29-18.757 10.341-27.177 18.037-27.416 37.759-44.01 101.01-35.834 129.63 21.886-9.14 50.984-55.075 44.732-65.417M781.911 25.769c-10.34 17.076-9.62 16.355-16.352 33.91 3.126 1.683 11.063 3.849 18.038 4.811 10.101-14.43 20.442-24.292 32.465-37.277-11.541-2.647-25.492-2.647-34.15-1.444m-65.415 152.476c4.57-21.644 24.772-75.276 39.922-106.781 5.052-.24 27.66 5.29 24.531 10.822-11.784 16.595-40.643 78.403-44.252 95.959 14.19-15.872 28.137-31.505 38-38.96 5.05-3.85 10.823-5.532 16.112.721-11.784 4.57-46.175 39.442-56.035 50.024-7.697.24-16.836-5.532-18.278-11.785"/><path d="M870.417 53.667c-.24.962-.722 1.924-1.683 3.126-.721 1.203-1.684 2.406-2.888 3.848-.96 1.203-1.921 2.164-2.643 2.887-.242 0-.481.24-.964.48h-1.682c-7.216 0-21.886-.24-29.102-.24-21.645 42.087-41.364 90.668-50.262 114.477 14.188-15.873 31.745-31.505 41.604-38.961 5.052-3.848 15.874-5.532 21.164.721-16.112 4.33-55.312 38.962-64.692 50.024-7.696.242-16.836-5.53-18.279-11.784 2.885-18.037 24.77-72.87 43.288-115.198-5.77 0-4.81-.242-10.34-.242h-.24v-.24c0-.481.24-1.202.481-1.924.24-.962.722-1.924 1.202-2.886.481-.722 1.202-1.683 1.684-2.404.721-.963 1.442-1.443 1.925-1.443 5.288-.241 4.088-.481 9.62-.481 6.012-13.708 11.544-25.494 15.39-33.19 5.053-.24 28.62 5.291 25.253 10.823-4.088 6.733-8.178 14.19-12.266 21.645 8.419 0 24.291-.241 32.708-.481.962 0 .962.481.722 1.443"/><path d="M866.089 155.158c-7.938 12.986-16.594 24.53-25.011 30.542 6.01-.24 8.417 0 13.948.242 4.81-10.102 8.417-20.683 11.063-30.784m-14.43 38.72c-27.417-1.684-57.718 2.405-83.934 19.48-26.215 17.076-37.276 51.948.72 48.341 32.95-4.33 63.253-29.341 83.214-67.821m16.115 11.304c-25.735 41.605-63.975 73.833-115.201 67.58-30.784-4.09-41.124-31.987-7.214-61.087 25.492-18.037 47.86-22.607 80.566-25.253-3.607-1.443-7.214-3.607-9.14-7.215-1.923-24.29 23.33-83.693 34.634-107.984 4.568-.481 25.732 5.532 22.847 11.064-8.899 13.467-20.201 36.555-26.935 52.67-.964 2.163-14.672 34.39-6.977 36.314 3.368 1.924 13.23-11.544 23.33-27.657 5.771-9.139 11.543-19.482 17.077-29.582 7.213-18.518 13.226-30.784 18.997-42.569 5.052-.24 27.659 5.292 24.292 10.824-16.595 30.543-27.417 55.073-39.443 86.579-2.885 8.177-5.05 13.708-7.456 19 13.23 2.164 33.43 6.974 49.302 18.277-4.328 2.405-15.632 6.013-21.164 9.38-4.328-10.101-17.075-17.076-31.744-19.961-1.683 2.885-3.368 6.012-5.771 9.62"/></g></g></svg>